<svg width="26" height="26" viewBox="0 0 26 26" fill="none" xmlns="http://www.w3.org/2000/svg">
<rect width="26" height="26" rx="13" fill="#1A1E27"/>
<path fill-rule="evenodd" clip-rule="evenodd" d="M9.12223 8.27571C8.88791 8.0414 8.50801 8.0414 8.2737 8.27571C8.03938 8.51003 8.03938 8.88993 8.2737 9.12424L10.8713 11.7218C11.1056 11.9561 11.4855 11.9561 11.7198 11.7218C11.9541 11.4875 11.9541 11.1076 11.7198 10.8733L9.12223 8.27571ZM8.34157 17.6594C8.10725 17.4251 8.10725 17.0452 8.34157 16.8109L16.8107 8.34176C17.045 8.10744 17.4249 8.10744 17.6592 8.34176C17.8935 8.57607 17.8935 8.95597 17.6592 9.19029L13.85 12.9995L17.7264 16.8758C17.9607 17.1102 17.9607 17.4901 17.7264 17.7244C17.4921 17.9587 17.1122 17.9587 16.8779 17.7244L13.0015 13.848L9.1901 17.6594C8.95578 17.8937 8.57588 17.8937 8.34157 17.6594Z" fill="white"/>
<path d="M8.2737 8.27571L8.34441 8.34642L8.2737 8.27571ZM9.12223 8.27571L9.05151 8.34642L9.12223 8.27571ZM8.2737 9.12424L8.34441 9.05353L8.2737 9.12424ZM10.8713 11.7218L10.942 11.6511L10.8713 11.7218ZM8.34157 16.8109L8.27086 16.7402L8.27086 16.7402L8.34157 16.8109ZM8.34157 17.6594L8.27086 17.7301L8.34157 17.6594ZM16.8107 8.34176L16.74 8.27105V8.27105L16.8107 8.34176ZM17.6592 8.34176L17.7299 8.27105L17.6592 8.34176ZM17.6592 9.19029L17.5885 9.11958L17.6592 9.19029ZM13.85 12.9995L13.7793 12.9288C13.7606 12.9475 13.75 12.973 13.75 12.9995C13.75 13.026 13.7606 13.0514 13.7793 13.0702L13.85 12.9995ZM17.7264 17.7244L17.7971 17.7951H17.7971L17.7264 17.7244ZM13.0015 13.848L13.0722 13.7773C13.0331 13.7382 12.9698 13.7382 12.9308 13.7773L13.0015 13.848ZM9.1901 17.6594L9.11939 17.5887L9.11939 17.5887L9.1901 17.6594ZM8.2737 8.27571L8.34441 8.34642C8.53967 8.15116 8.85625 8.15116 9.05151 8.34642L9.12223 8.27571L9.19294 8.205C8.91957 7.93163 8.47635 7.93163 8.20299 8.205L8.2737 8.27571ZM8.2737 9.12424L8.34441 9.05353C8.14915 8.85827 8.14915 8.54168 8.34441 8.34642L8.2737 8.27571L8.20299 8.205C7.92962 8.47837 7.92962 8.92158 8.20299 9.19495L8.2737 9.12424ZM10.8713 11.7218L10.942 11.6511L8.34441 9.05353L8.2737 9.12424L8.20299 9.19495L10.8006 11.7925L10.8713 11.7218ZM11.7198 11.7218L11.6491 11.6511C11.4538 11.8464 11.1373 11.8464 10.942 11.6511L10.8713 11.7218L10.8006 11.7925C11.0739 12.0659 11.5171 12.0659 11.7905 11.7925L11.7198 11.7218ZM11.7198 10.8733L11.6491 10.944C11.8444 11.1393 11.8444 11.4558 11.6491 11.6511L11.7198 11.7218L11.7905 11.7925C12.0639 11.5192 12.0639 11.0759 11.7905 10.8026L11.7198 10.8733ZM9.12223 8.27571L9.05151 8.34642L11.6491 10.944L11.7198 10.8733L11.7905 10.8026L9.19294 8.205L9.12223 8.27571ZM8.34157 16.8109L8.27086 16.7402C7.99749 17.0135 7.99749 17.4567 8.27086 17.7301L8.34157 17.6594L8.41228 17.5887C8.21702 17.3934 8.21702 17.0768 8.41228 16.8816L8.34157 16.8109ZM16.8107 8.34176L16.74 8.27105L8.27086 16.7402L8.34157 16.8109L8.41228 16.8816L16.8814 8.41247L16.8107 8.34176ZM17.6592 8.34176L17.7299 8.27105C17.4565 7.99768 17.0133 7.99768 16.74 8.27105L16.8107 8.34176L16.8814 8.41247C17.0766 8.21721 17.3932 8.21721 17.5885 8.41247L17.6592 8.34176ZM17.6592 9.19029L17.7299 9.261C18.0033 8.98763 18.0033 8.54442 17.7299 8.27105L17.6592 8.34176L17.5885 8.41247C17.7838 8.60773 17.7838 8.92431 17.5885 9.11958L17.6592 9.19029ZM13.85 12.9995L13.9207 13.0702L17.7299 9.261L17.6592 9.19029L17.5885 9.11958L13.7793 12.9288L13.85 12.9995ZM17.7264 16.8758L17.7971 16.8051L13.9207 12.9288L13.85 12.9995L13.7793 13.0702L17.6557 16.9465L17.7264 16.8758ZM17.7264 17.7244L17.7971 17.7951C18.0705 17.5217 18.0705 17.0785 17.7971 16.8051L17.7264 16.8758L17.6557 16.9465C17.8509 17.1418 17.8509 17.4584 17.6557 17.6537L17.7264 17.7244ZM16.8779 17.7244L16.8071 17.7951C17.0805 18.0684 17.5237 18.0684 17.7971 17.7951L17.7264 17.7244L17.6557 17.6537C17.4604 17.8489 17.1438 17.8489 16.9486 17.6537L16.8779 17.7244ZM13.0015 13.848L12.9308 13.9187L16.8071 17.7951L16.8779 17.7244L16.9486 17.6537L13.0722 13.7773L13.0015 13.848ZM9.1901 17.6594L9.26081 17.7301L13.0722 13.9187L13.0015 13.848L12.9308 13.7773L9.11939 17.5887L9.1901 17.6594ZM8.34157 17.6594L8.27086 17.7301C8.54422 18.0035 8.98744 18.0035 9.26081 17.7301L9.1901 17.6594L9.11939 17.5887C8.92412 17.7839 8.60754 17.7839 8.41228 17.5887L8.34157 17.6594Z" fill="white"/>
</svg>
