<svg width="28" height="28" viewBox="0 0 28 28" fill="none" xmlns="http://www.w3.org/2000/svg">
<path d="M18.5571 2.60791C22.3316 2.60839 25.3921 5.66928 25.3921 9.44385V18.5571C25.3916 22.3313 22.3313 25.3916 18.5571 25.3921H9.44385C5.66927 25.3921 2.60838 22.3316 2.60791 18.5571V9.44385C2.60791 5.66898 5.66898 2.60791 9.44385 2.60791H18.5571ZM23.1128 10.5825H4.88721V18.5571C4.88768 21.0733 6.92756 23.1138 9.44385 23.1138H18.5571C21.073 23.1133 23.1133 21.073 23.1138 18.5571V9.44385C23.1138 9.4326 23.1129 9.4209 23.1128 9.40967V10.5825ZM11.7397 13.2788C11.7397 13.0132 12.0295 12.8492 12.2573 12.9858L16.9478 15.7993C17.1687 15.9321 17.1687 16.2525 16.9478 16.3853L12.2573 19.1997C12.0297 19.3358 11.7401 19.1719 11.7397 18.9067V13.2788ZM8.5083 4.98193C6.81087 5.33588 5.45951 6.6349 5.02979 8.30322H10.354L8.5083 4.98193ZM18.6567 8.30322H22.9702C22.4641 6.33859 20.6797 4.88761 18.5571 4.88721H16.7593L18.6567 8.30322ZM12.9604 8.30322H16.0503L14.1519 4.88721H11.063L12.9604 8.30322Z" fill="#68717B"/>
</svg>
