<svg width="28" height="28" viewBox="0 0 28 28" fill="none" xmlns="http://www.w3.org/2000/svg">
<mask id="mask0_1_5945" style="mask-type:alpha" maskUnits="userSpaceOnUse" x="0" y="0" width="28" height="28">
<rect width="28" height="28" fill="#D9D9D9"/>
</mask>
<g mask="url(#mask0_1_5945)">
<path d="M13.6122 4.14563C13.8123 3.89985 14.1875 3.89985 14.3876 4.14563L15.8359 5.92493L16.1367 6.29309H23.0019C23.5541 6.29309 24.0018 6.74086 24.0019 7.29309V22.9943C24.0018 23.5464 23.5541 23.9943 23.0019 23.9943H4.99799C4.44578 23.9943 3.99811 23.5464 3.99799 22.9943V7.29309C3.99805 6.74086 4.44574 6.29309 4.99799 6.29309H11.8642L12.164 5.92493L13.6122 4.14563Z" stroke="#68717B" stroke-width="2"/>
<path d="M20.2017 24.9941V22.4469C20.2017 20.79 18.8585 19.4469 17.2017 19.4469H10.7983C9.14149 19.4469 7.79834 20.79 7.79834 22.4469V24.9941" stroke="#68717B" stroke-width="2"/>
<circle cx="14" cy="13.0762" r="3.5" stroke="#68717B" stroke-width="2"/>
</g>
</svg>
