<svg width="15" height="15" viewBox="0 0 15 15" fill="none" xmlns="http://www.w3.org/2000/svg">
<path d="M3.61237 7.6037C3.83108 7.38532 4.18577 7.38511 4.40436 7.6037C4.62292 7.82229 4.62273 8.17698 4.40436 8.39569L3.75983 9.04022H12.0001C12.3092 9.04028 12.5595 9.29067 12.5596 9.59979C12.5596 9.90904 12.3093 10.1603 12.0001 10.1603H2.4776C2.30958 10.1838 2.13318 10.1333 2.00397 10.0041C1.89451 9.89464 1.8398 9.75106 1.8399 9.6076V9.59979C1.83998 9.42459 1.92187 9.26981 2.04791 9.16718L3.61237 7.6037ZM10.004 2.79608C10.2227 2.57739 10.5773 2.57739 10.796 2.79608L12.4044 4.40448C12.6227 4.6232 12.6229 4.97791 12.4044 5.19647C12.2937 5.30707 12.148 5.35988 12.003 5.35858L12.0001 5.35956H2.39948C2.09042 5.3593 1.8399 5.10911 1.8399 4.79999C1.83991 4.49087 2.09042 4.24068 2.39948 4.24042H10.6563L10.004 3.58807C9.78529 3.3694 9.78532 3.01478 10.004 2.79608Z" fill="white"/>
</svg>
